<?xml version="1.0"?>

<svg xmlns="http://www.w3.org/2000/svg" xmlns:lucid="lucid" width="114" height="165" viewBox="0 0 90 165">
  <defs>
        <linearGradient id="myGradient" gradientTransform="rotate(90)">
        <stop offset="0%"  stop-color="#4776e6" />
        <stop offset="100%" stop-color="#8e54e9" />
        </linearGradient>
  </defs>
  <g lucid:page-tab-id="0_0" stroke="url('#myGradient')" stroke-width="4" fill="none">
    <path d="M100 138V96c0-3.3-2.7-6-6-6H46c-3.3 0-6-2.7-6-6V42M100 137.95V140M40 42.05V40"/>
    <path d="M98 140H86c-3.3 0-6-2.7-6-6V26c0-3.3-2.7-6-6-6H46c-3.3 0-6 2.7-6 6v12M97.95 140H100M40 37.95V40M89.33 138V92M89.33 137.95V140M89.33 92.05V90M102 140h96M102.05 140H100M197.95 140H200"/>
  </g>
</svg>